<?xml version="1.0" standalone="no"?><!DOCTYPE svg PUBLIC "-//W3C//DTD SVG 1.1//EN" "http://www.w3.org/Graphics/SVG/1.1/DTD/svg11.dtd"><svg t="1781120636447" class="icon" viewBox="0 0 1024 1024" version="1.1" xmlns="http://www.w3.org/2000/svg" p-id="4259" xmlns:xlink="http://www.w3.org/1999/xlink" width="64" height="64"><path d="M105.22624001 81.06666667h728.21418666a45.49290667 45.49290667 0 0 1 0 91.04042667H105.22624001a45.49290667 45.49290667 0 0 1 0-91.04042667M59.73333334 354.13333334c0 25.12213333 20.37077333 45.49290667 45.49290667 45.49290666H605.86666667a45.49290667 45.49290667 0 0 0 0-90.98581333H105.22624001A45.49290667 45.49290667 0 0 0 59.73333334 354.13333334zM59.73333334 581.70709334c0 25.12213333 20.37077333 45.49290667 45.49290667 45.49290666h318.61418666a45.49290667 45.49290667 0 0 0 0-91.04042666H105.22624001a45.49290667 45.49290667 0 0 0-45.49290667 45.54752zM667.63434667 931.72394667a18.29546667 18.29546667 0 0 1-13.05258666 13.27104 19.77002667 19.77002667 0 0 1-5.51594667 0.76458667h-0.38229333a18.13162667 18.13162667 0 0 1-4.47829334-0.54613334l-0.32768-0.10922666h-0.10922666a15.45557333 15.45557333 0 0 1-0.76458667-0.27306667l-0.43690667-0.16384a18.8416 18.8416 0 0 1-12.88874666-15.07328l-43.58144-147.94752-148.65749334-46.96746667a18.73237333 18.73237333 0 0 1-11.41418666-9.61194666 18.67776 18.67776 0 0 1-1.25610667-14.85482667c2.29376-7.09973333 7.09973333-11.4688 14.36330667-13.05258667l148.76672-43.74528 46.42133333-145.59914666c0.54613333-4.15061333 2.18453333-7.70048 5.02442667-10.75882667a18.18624 18.18624 0 0 1 19.16928-5.62517333 18.13162667 18.13162667 0 0 1 13.98101333 14.03562666l44.12757333 149.74976 148.71210667 47.18592c4.58752 1.41994667 8.192 4.20522667 10.70421333 8.24661334a18.8416 18.8416 0 0 1 0.76458667 19.06005333 19.33312 19.33312 0 0 1-1.20149333 2.02069333l-0.10922667 0.10922667a18.95082667 18.95082667 0 0 1-10.59498667 7.75509333l-150.40512 44.2368-46.85824 147.89290667zM864.29696001 574.66197334a9.12042667 9.12042667 0 0 1-6.5536 6.60821333 9.8304 9.8304 0 0 1-2.73066667 0.43690667h-0.16384a9.0112 9.0112 0 0 1-2.23914667-0.32768h-0.16384a7.80970667 7.80970667 0 0 1-0.43690666-0.16384l-0.21845334-0.05461334a9.44810667 9.44810667 0 0 1-6.49898666-7.59125333l-21.73610667-73.94645333-74.32874667-23.48373334a9.33888 9.33888 0 0 1-5.7344-4.80597333 9.33888 9.33888 0 0 1-0.60074666-7.42741333 9.12042667 9.12042667 0 0 1 7.15434666-6.5536l74.38336-21.84533334 23.26528-72.79957333a9.50272 9.50272 0 0 1 2.4576-5.40672 9.06581333 9.06581333 0 0 1 9.61194667-2.78528c3.71370667 0.92842667 6.00746667 3.2768 6.99050667 6.99050667l22.06378666 74.92949333 74.32874667 23.53834667a9.44810667 9.44810667 0 0 1 5.35210667 4.15061333 9.44810667 9.44810667 0 0 1 0.70997333 8.84736 8.41045333 8.41045333 0 0 1-0.92842667 1.69301333v0.05461334a9.44810667 9.44810667 0 0 1-5.35210666 3.87754666l-75.20256 22.1184-23.42912 73.94645334zM339.35360001 940.1344a7.31818667 7.31818667 0 0 1-5.24288 5.35210667 7.91893333 7.91893333 0 0 1-2.18453334 0.27306667H331.70773334a7.26357333 7.26357333 0 0 1-1.74762667-0.21845334h-0.16384a6.11669333 6.11669333 0 0 1-0.32768-0.16384h-0.16384a7.53664 7.53664 0 0 1-5.18826666-6.06208l-17.47626667-59.20085333-59.41930667-18.78698667a7.48202667 7.48202667 0 0 1-4.53290666-3.82293333 7.48202667 7.48202667 0 0 1-0.54613334-5.95285333 7.31818667 7.31818667 0 0 1 5.78901334-5.24288l59.52853333-17.47626667 18.56853333-58.27242667a7.64586667 7.64586667 0 0 1 1.96608-4.25984 7.26357333 7.26357333 0 0 1 7.64586667-2.29376 7.26357333 7.26357333 0 0 1 5.62517333 5.62517334l17.64010667 59.91082666 59.52853333 18.89621334c1.80224 0.54613333 3.2768 1.6384 4.25984 3.2768a7.53664 7.53664 0 0 1 0.27306667 7.64586666 7.64586667 7.64586667 0 0 1-4.75136 3.98677334l-60.12928 17.64010666-18.78698667 59.14624z" fill="#2c2c2c" p-id="4260"></path></svg>