<?xml version="1.0" standalone="no"?><!DOCTYPE svg PUBLIC "-//W3C//DTD SVG 1.1//EN" "http://www.w3.org/Graphics/SVG/1.1/DTD/svg11.dtd"><svg t="1779956372743" class="icon" viewBox="0 0 1025 1024" version="1.1" xmlns="http://www.w3.org/2000/svg" p-id="4146" xmlns:xlink="http://www.w3.org/1999/xlink" width="64.0625" height="64"><path d="M499.13877412 93.61778047c7.08393692-14.27670528 18.64165606-14.27670528 25.71929648 0l117.72593262 238.61427276c7.02277558 14.27490703 25.71569912 27.87254033 41.46477715 30.1400121l263.31631085 38.29607315c15.80394375 2.26657178 19.37379463 13.25494951 7.93120341 24.41601826l-190.46130908 185.70240791c-11.44349033 11.16196787-18.58229297 33.1414207-15.86510508 48.83113652l44.98246143 262.23968935c2.71898701 15.69421231-6.68548828 22.49123028-20.73283857 15.07090518l-235.55799844-123.83938125c-14.1067125-7.36366113-37.21945166-7.36366113-51.32526505 0l-235.55530019 123.83938125c-14.04735029 7.4203251-23.45542295 0.62330713-20.73193858-15.07090517l44.98156143-262.23968936c2.71808789-15.68971582-4.41981563-37.66916865-15.86420596-48.83113652l-190.46130907-185.70240791c-11.44439033-11.16106875-7.87453945-22.1494456 7.93120341-24.41601827l263.31451172-38.29607314c15.74997714-2.26747177 34.44380068-15.86510508 41.46837451-30.1400121L499.13877412 93.61778047z" fill="#231815" p-id="4147"></path></svg>