<?xml version="1.0" standalone="no"?><!DOCTYPE svg PUBLIC "-//W3C//DTD SVG 1.1//EN" "http://www.w3.org/Graphics/SVG/1.1/DTD/svg11.dtd"><svg t="1779956376112" class="icon" viewBox="0 0 1025 1024" version="1.1" xmlns="http://www.w3.org/2000/svg" p-id="4304" xmlns:xlink="http://www.w3.org/1999/xlink" width="64.0625" height="64"><path d="M512.0015706 199.43971279l78.51783341 159.07288448c15.46395732 31.44598945 50.53196513 56.87836699 85.20242255 61.97635458l175.67642373 25.49533798-127.12591055 123.95091095c-25.04112451 24.47627959-38.40850283 65.60376943-32.51631445 100.15999893l30.02488419 174.94158691-157.09323165-82.59856259c-19.2065001-10.08354727-39.25756758-12.23679111-52.68610811-12.23679112-13.42764052 0-33.47960801 2.15414297-52.62854414 12.23679112l-157.15349297 82.59856259 30.02578419-174.94158691c5.89488662-34.55622949-7.47788906-75.68371934-32.51631446-100.15999893l-127.12411142-123.95091095 175.67462461-25.49533798c34.66865918-5.09798848 69.73756523-30.53036602 85.20242255-61.97635458L512.0015706 199.43971279M512.0015706 83.58640068c-4.64557325 0-9.28934737 3.56805175-12.86279648 10.70595528l-117.71963701 238.61337363c-7.02457471 14.27670528-25.71839737 27.87523857-41.46837451 30.14091123l-263.31451172 38.29607314c-15.80574199 2.26657178-19.37559375 13.25764775-7.93120341 24.41601826l190.46220907 185.70330703c11.44439033 11.16016875 18.58229297 33.14052158 15.86420596 48.8347339l-44.98156143 262.2360911c-1.92658623 11.33106153 2.43566543 18.07321377 10.36506974 18.07321378 3.00410771 0 6.5154955-0.96419268 10.36596971-3.0023086l235.55530021-123.83938125c7.02547383-3.68407881 16.3759834-5.55490019 25.66533075-5.55490019 9.28754912 0 18.63715869 1.87082138 25.65993428 5.55490019l235.55799844 123.83938125c3.85137334 2.03811593 7.36456026 3.00230859 10.36686885 3.0023086 7.93120342 0 12.29255596-6.74215225 10.36506972-18.07321377l-44.98246142-262.23609111c-2.71718789-15.69421231 4.42161474-37.67456513 15.86510508-48.8347339l190.46130907-185.70330703c11.44259121-11.15837051 7.87274033-22.1503456-7.93120341-24.41601826l-263.31631084-38.29607314c-15.74907802-2.26567266-34.44200156-15.86420596-41.46477714-30.14091123L524.85896972 94.29235596C521.29001885 87.15445244 516.64714385 83.58640068 512.0015706 83.58640068L512.0015706 83.58640068z" fill="#231815" p-id="4305"></path></svg>