<?xml version="1.0" standalone="no"?><!DOCTYPE svg PUBLIC "-//W3C//DTD SVG 1.1//EN" "http://www.w3.org/Graphics/SVG/1.1/DTD/svg11.dtd"><svg t="1781181144488" class="icon" viewBox="0 0 1024 1024" version="1.1" xmlns="http://www.w3.org/2000/svg" p-id="4226" xmlns:xlink="http://www.w3.org/1999/xlink" width="64" height="64"><path d="M524.13759084 109.8853439c-16.19726285 16.19726285-16.19726285 42.37800485 0 58.57526775L826.2517545 470.57477531 97.74775309 470.57477531c-22.86672404 0-41.4252247 18.55850066-41.4252247 41.42522469s18.55850066 41.4252247 41.4252247 41.42522469l728.50400141 0-302.11416366 302.11416366c-16.19726285 16.19726285-16.19726285 42.37800485 0 58.57526775s42.37800485 16.19726285 58.57526771-1e-8l372.785597-372.82702222c3.8525459-3.81112067 6.87658731-8.40932062 8.98927375-13.50462326C966.60041578 522.77055842 967.67747161 517.3852792 967.67747161 512s-1.07705584-10.77055842-3.18974231-15.82443583c-2.11268645-5.09530263-5.13672786-9.65207735-8.98927375-13.50462326l-372.785597-372.82702221C566.5155957 93.68808107 540.33485369 93.68808107 524.13759084 109.8853439z" fill="#2c2c2c" p-id="4227"></path></svg>