<?xml version="1.0" standalone="no"?><!DOCTYPE svg PUBLIC "-//W3C//DTD SVG 1.1//EN" "http://www.w3.org/Graphics/SVG/1.1/DTD/svg11.dtd"><svg t="1781181152754" class="icon" viewBox="0 0 1024 1024" version="1.1" xmlns="http://www.w3.org/2000/svg" p-id="4538" xmlns:xlink="http://www.w3.org/1999/xlink" width="64" height="64"><path d="M109.8853439 499.86240916c16.19726285 16.19726285 42.37800485 16.19726285 58.57526775 0L470.57477531 197.7482455 470.57477531 926.25224691c0 22.86672404 18.55850066 41.4252247 41.42522469 41.4252247s41.4252247-18.55850066 41.42522469-41.4252247l0-728.50400141 302.11416366 302.11416366c16.19726285 16.19726285 42.37800485 16.19726285 58.57526775 0s16.19726285-42.37800485-1e-8-58.57526771l-372.82702222-372.785597c-3.81112067-3.8525459-8.40932062-6.87658731-13.50462326-8.98927375C522.77055842 57.39958422 517.3852792 56.32252839 512 56.32252839s-10.77055842 1.07705584-15.82443583 3.18974231c-5.09530263 2.11268645-9.65207735 5.13672786-13.50462326 8.98927375l-372.82702221 372.785597C93.68808107 457.4844043 93.68808107 483.66514631 109.8853439 499.86240916z" fill="#2c2c2c" p-id="4539"></path></svg>